<svg xmlns="http://www.w3.org/2000/svg" xmlns:xlink="http://www.w3.org/1999/xlink" width="500" zoomAndPan="magnify" viewBox="0 0 375 374.999991" height="500" preserveAspectRatio="xMidYMid meet" version="1.0"><defs><clipPath id="52cde50589"><path d="M 37.5 203 L 300 203 L 300 330.09375 L 37.5 330.09375 Z M 37.5 203 " clip-rule="nonzero"/></clipPath><clipPath id="c9fcc34866"><path d="M 37.5 63 L 300 63 L 300 189.332031 L 37.5 189.332031 Z M 37.5 63 " clip-rule="nonzero"/></clipPath></defs><path fill="#bef264" d="M 125.519531 331.800781 C 116.460938 329.96875 119.027344 316.742188 128.082031 318.570312 C 128.964844 318.75 129.847656 318.929688 130.730469 319.105469 C 139.789062 320.9375 137.222656 334.164062 128.167969 332.335938 C 127.285156 332.15625 126.402344 331.976562 125.519531 331.800781 Z M 220.125 332.054688 C 220.644531 331.730469 221.167969 331.402344 221.6875 331.078125 C 229.25 326.351562 221.136719 314.980469 213.5625 319.714844 C 213.042969 320.042969 212.519531 320.367188 211.996094 320.695312 C 204.4375 325.421875 212.550781 336.792969 220.121094 332.054688 Z M 306.664062 350.839844 C 311.890625 358.148438 323.648438 350.816406 318.414062 343.492188 C 313.183594 336.183594 301.425781 343.515625 306.664062 350.839844 Z M 41.835938 259.164062 C 42.722656 259.34375 43.605469 259.523438 44.488281 259.699219 C 53.542969 261.53125 56.109375 248.304688 47.046875 246.472656 C 46.164062 246.292969 45.28125 246.113281 44.398438 245.9375 C 35.34375 244.105469 32.777344 257.332031 41.835938 259.164062 Z M 164.585938 367.328125 C 164.949219 367.832031 165.308594 368.335938 165.671875 368.839844 C 168.859375 373.296875 175.964844 375.035156 180.578125 371.851562 C 185.203125 368.660156 186.710938 362.597656 183.296875 357.824219 C 182.933594 357.316406 182.574219 356.8125 182.210938 356.308594 C 179.023438 351.851562 171.917969 350.113281 167.304688 353.296875 C 162.679688 356.488281 161.171875 362.550781 164.589844 367.328125 Z M 334.105469 309.566406 C 341.945312 320.535156 359.582031 309.53125 351.726562 298.546875 C 343.886719 287.582031 326.25 298.582031 334.105469 309.566406 Z M 276.550781 324.34375 C 276.714844 323.511719 276.875 322.679688 277.035156 321.847656 C 277.859375 317.585938 270.835938 316.164062 270.007812 320.429688 C 269.847656 321.261719 269.6875 322.089844 269.527344 322.921875 C 268.699219 327.183594 275.726562 328.605469 276.550781 324.34375 Z M 366.492188 282.742188 C 369.105469 286.394531 374.984375 282.730469 372.367188 279.066406 C 369.75 275.414062 363.875 279.078125 366.492188 282.742188 Z M 67.046875 250.742188 C 69.660156 254.398438 75.539062 250.730469 72.917969 247.070312 C 70.304688 243.414062 64.425781 247.082031 67.046875 250.742188 Z M 79.832031 275.359375 C 80.351562 275.03125 80.875 274.707031 81.398438 274.378906 C 85.179688 272.015625 81.121094 266.332031 77.335938 268.699219 C 76.8125 269.023438 76.289062 269.351562 75.769531 269.675781 C 71.988281 272.039062 76.046875 277.726562 79.832031 275.359375 Z M 128.664062 359.09375 C 131.277344 362.75 137.15625 359.082031 134.539062 355.421875 C 131.925781 351.765625 126.046875 355.433594 128.664062 359.09375 Z M 170.960938 332.652344 C 173.574219 336.304688 179.453125 332.640625 176.832031 328.976562 C 174.21875 325.324219 168.339844 328.988281 170.960938 332.652344 Z M 75.183594 350.878906 C 77.796875 354.535156 83.675781 350.867188 81.058594 347.207031 C 78.445312 343.550781 72.566406 347.21875 75.183594 350.878906 Z M 7.921875 269.898438 C 8.441406 269.574219 8.964844 269.246094 9.488281 268.921875 C 13.269531 266.554688 9.210938 260.871094 5.425781 263.238281 C 4.902344 263.566406 4.378906 263.890625 3.859375 264.21875 C 0.078125 266.582031 4.136719 272.265625 7.921875 269.898438 Z M 43.300781 280.9375 C 45.914062 284.589844 51.792969 280.925781 49.171875 277.261719 C 46.558594 273.609375 40.679688 277.273438 43.300781 280.9375 Z M 130.523438 257.089844 C 133.140625 260.746094 139.015625 257.078125 136.398438 253.417969 C 133.785156 249.761719 127.90625 253.429688 130.523438 257.089844 Z M 110.511719 289.332031 C 113.125 292.988281 119.003906 289.324219 116.386719 285.660156 C 113.773438 282.007812 107.894531 285.671875 110.511719 289.332031 Z M 341.046875 335.917969 C 343.660156 339.570312 349.539062 335.90625 346.921875 332.242188 C 344.308594 328.589844 338.429688 332.257812 341.046875 335.917969 Z M 341.046875 335.917969 " fill-opacity="1" fill-rule="nonzero"/><g clip-path="url(#52cde50589)"><path fill="#ffffff" d="M 155.070312 330.039062 C 143.730469 330.183594 143.507812 313.753906 154.832031 313.609375 C 155.613281 313.597656 156.394531 313.589844 157.175781 313.578125 C 168.515625 313.433594 168.738281 329.863281 157.417969 330.007812 C 156.636719 330.015625 155.851562 330.027344 155.070312 330.035156 Z M 193.65625 213.460938 C 193.8125 224.03125 211.410156 223.824219 211.253906 213.238281 C 211.097656 202.664062 193.503906 202.871094 193.65625 213.460938 Z M 268.53125 258.515625 C 268.519531 257.785156 268.507812 257.054688 268.496094 256.324219 C 268.417969 251.039062 259.621094 251.140625 259.699219 256.4375 C 259.707031 257.167969 259.71875 257.898438 259.730469 258.628906 C 259.808594 263.914062 268.605469 263.808594 268.53125 258.515625 Z M 206.21875 289.984375 C 206.296875 295.269531 215.09375 295.167969 215.015625 289.871094 C 214.9375 284.585938 206.140625 284.6875 206.21875 289.984375 Z M 275.960938 213.125 C 276.734375 212.382812 277.503906 211.644531 278.273438 210.902344 C 282.230469 207.109375 275.925781 201.378906 271.96875 205.175781 C 271.199219 205.914062 270.425781 206.65625 269.65625 207.394531 C 265.703125 211.1875 272.007812 216.917969 275.960938 213.125 Z M 291.0625 293.953125 C 291.074219 294.683594 291.085938 295.414062 291.097656 296.144531 C 291.171875 301.429688 299.972656 301.324219 299.894531 296.03125 C 299.882812 295.300781 299.871094 294.570312 299.863281 293.839844 C 299.785156 288.554688 290.984375 288.65625 291.0625 293.953125 Z M 86.5 286.015625 C 86.578125 291.300781 95.375 291.199219 95.296875 285.902344 C 95.21875 280.617188 86.421875 280.722656 86.5 286.015625 Z M 37.550781 309.667969 C 37.628906 314.953125 46.425781 314.847656 46.351562 309.554688 C 46.273438 304.269531 37.476562 304.371094 37.550781 309.667969 Z M 182.828125 258.628906 C 182.90625 263.914062 191.703125 263.808594 191.628906 258.515625 C 191.550781 253.230469 182.753906 253.332031 182.828125 258.628906 Z M 134.6875 279.949219 C 134.765625 285.234375 143.5625 285.132812 143.484375 279.835938 C 143.40625 274.550781 134.609375 274.65625 134.6875 279.949219 Z M 134.6875 279.949219 " fill-opacity="1" fill-rule="nonzero"/></g><path fill="#bef264" d="M 125.519531 191.042969 C 116.460938 189.210938 119.027344 175.984375 128.082031 177.8125 C 128.964844 177.992188 129.847656 178.171875 130.730469 178.347656 C 139.789062 180.179688 137.222656 193.40625 128.167969 191.578125 C 127.285156 191.398438 126.402344 191.21875 125.519531 191.042969 Z M 220.125 191.296875 C 220.644531 190.972656 221.167969 190.644531 221.6875 190.320312 C 229.25 185.589844 221.136719 174.222656 213.5625 178.957031 C 213.042969 179.285156 212.519531 179.609375 211.996094 179.9375 C 204.4375 184.664062 212.550781 196.03125 220.121094 191.296875 Z M 306.664062 210.082031 C 311.890625 217.390625 323.648438 210.058594 318.414062 202.734375 C 313.183594 195.425781 301.425781 202.757812 306.664062 210.082031 Z M 41.835938 118.40625 C 42.722656 118.585938 43.605469 118.765625 44.488281 118.941406 C 53.542969 120.773438 56.109375 107.542969 47.046875 105.714844 C 46.164062 105.535156 45.28125 105.355469 44.398438 105.179688 C 35.34375 103.347656 32.777344 116.574219 41.835938 118.40625 Z M 164.585938 226.566406 C 164.949219 227.074219 165.308594 227.578125 165.671875 228.082031 C 168.859375 232.539062 175.964844 234.273438 180.578125 231.09375 C 185.203125 227.902344 186.710938 221.839844 183.296875 217.0625 C 182.933594 216.558594 182.574219 216.054688 182.210938 215.550781 C 179.023438 211.09375 171.917969 209.355469 167.304688 212.539062 C 162.679688 215.730469 161.171875 221.789062 164.589844 226.566406 Z M 334.105469 168.808594 C 341.945312 179.773438 359.582031 168.773438 351.726562 157.789062 C 343.886719 146.824219 326.25 157.824219 334.105469 168.808594 Z M 276.550781 183.585938 C 276.714844 182.753906 276.875 181.921875 277.035156 181.089844 C 277.859375 176.828125 270.835938 175.40625 270.007812 179.671875 C 269.847656 180.5 269.6875 181.332031 269.527344 182.164062 C 268.699219 186.425781 275.726562 187.847656 276.550781 183.585938 Z M 366.492188 141.980469 C 369.105469 145.636719 374.984375 141.972656 372.367188 138.308594 C 369.75 134.652344 363.875 138.320312 366.492188 141.980469 Z M 67.046875 109.984375 C 69.660156 113.640625 75.539062 109.972656 72.917969 106.3125 C 70.304688 102.65625 64.425781 106.324219 67.046875 109.984375 Z M 79.832031 134.601562 C 80.351562 134.273438 80.875 133.945312 81.398438 133.621094 C 85.179688 131.257812 81.121094 125.574219 77.335938 127.941406 C 76.8125 128.265625 76.289062 128.59375 75.769531 128.917969 C 71.988281 131.28125 76.046875 136.96875 79.832031 134.601562 Z M 128.664062 218.335938 C 131.277344 221.992188 137.15625 218.324219 134.539062 214.664062 C 131.925781 211.007812 126.046875 214.675781 128.664062 218.335938 Z M 170.960938 191.890625 C 173.574219 195.546875 179.453125 191.882812 176.832031 188.21875 C 174.21875 184.566406 168.339844 188.230469 170.960938 191.890625 Z M 75.183594 210.121094 C 77.796875 213.777344 83.675781 210.109375 81.058594 206.449219 C 78.445312 202.792969 72.566406 206.460938 75.183594 210.121094 Z M 7.921875 129.140625 C 8.441406 128.8125 8.964844 128.488281 9.488281 128.160156 C 13.269531 125.796875 9.210938 120.113281 5.425781 122.480469 C 4.902344 122.808594 4.378906 123.132812 3.859375 123.460938 C 0.078125 125.824219 4.136719 131.507812 7.921875 129.140625 Z M 43.300781 140.179688 C 45.914062 143.832031 51.792969 140.167969 49.171875 136.503906 C 46.558594 132.851562 40.679688 136.515625 43.300781 140.179688 Z M 130.523438 116.332031 C 133.140625 119.988281 139.015625 116.320312 136.398438 112.660156 C 133.785156 109.003906 127.90625 112.671875 130.523438 116.332031 Z M 110.511719 148.574219 C 113.125 152.230469 119.003906 148.5625 116.386719 144.902344 C 113.773438 141.246094 107.894531 144.914062 110.511719 148.574219 Z M 341.046875 195.160156 C 343.660156 198.8125 349.539062 195.148438 346.921875 191.484375 C 344.308594 187.832031 338.429688 191.496094 341.046875 195.160156 Z M 341.046875 195.160156 " fill-opacity="1" fill-rule="nonzero"/><g clip-path="url(#c9fcc34866)"><path fill="#ffffff" d="M 155.070312 189.277344 C 143.730469 189.425781 143.507812 172.996094 154.832031 172.851562 C 155.613281 172.839844 156.394531 172.828125 157.175781 172.820312 C 168.515625 172.675781 168.738281 189.105469 157.417969 189.25 C 156.636719 189.257812 155.851562 189.269531 155.070312 189.277344 Z M 193.65625 72.703125 C 193.8125 83.273438 211.410156 83.066406 211.253906 72.476562 C 211.097656 61.90625 193.503906 62.113281 193.65625 72.703125 Z M 268.53125 117.757812 C 268.519531 117.027344 268.507812 116.296875 268.496094 115.566406 C 268.417969 110.28125 259.621094 110.382812 259.699219 115.679688 C 259.707031 116.410156 259.71875 117.136719 259.730469 117.871094 C 259.808594 123.15625 268.605469 123.050781 268.53125 117.757812 Z M 206.21875 149.226562 C 206.296875 154.511719 215.09375 154.40625 215.015625 149.113281 C 214.9375 143.828125 206.140625 143.929688 206.21875 149.226562 Z M 275.960938 72.367188 C 276.734375 71.625 277.503906 70.886719 278.273438 70.144531 C 282.230469 66.351562 275.925781 60.621094 271.96875 64.414062 C 271.199219 65.15625 270.425781 65.898438 269.65625 66.636719 C 265.703125 70.429688 272.007812 76.160156 275.960938 72.367188 Z M 291.0625 153.195312 C 291.074219 153.925781 291.085938 154.65625 291.097656 155.386719 C 291.171875 160.671875 299.972656 160.566406 299.894531 155.273438 C 299.882812 154.542969 299.871094 153.8125 299.863281 153.082031 C 299.785156 147.796875 290.984375 147.898438 291.0625 153.195312 Z M 86.5 145.257812 C 86.578125 150.542969 95.375 150.441406 95.296875 145.144531 C 95.21875 139.859375 86.421875 139.964844 86.5 145.257812 Z M 37.550781 168.910156 C 37.628906 174.191406 46.425781 174.089844 46.351562 168.796875 C 46.273438 163.511719 37.476562 163.613281 37.550781 168.910156 Z M 182.828125 117.871094 C 182.90625 123.15625 191.703125 123.050781 191.628906 117.757812 C 191.550781 112.472656 182.753906 112.574219 182.828125 117.871094 Z M 134.6875 139.191406 C 134.765625 144.476562 143.5625 144.375 143.484375 139.078125 C 143.40625 133.792969 134.609375 133.894531 134.6875 139.191406 Z M 134.6875 139.191406 " fill-opacity="1" fill-rule="nonzero"/></g><path fill="#b6b6b6" d="M 249.480469 43.199219 C 258.539062 45.027344 255.972656 58.257812 246.917969 56.425781 C 246.035156 56.25 245.152344 56.070312 244.269531 55.890625 C 235.210938 54.0625 237.777344 40.835938 246.832031 42.664062 C 247.714844 42.84375 248.597656 43.019531 249.480469 43.199219 Z M 154.875 42.941406 C 154.355469 43.269531 153.832031 43.59375 153.3125 43.921875 C 145.75 48.648438 153.863281 60.015625 161.4375 55.285156 C 161.957031 54.957031 162.480469 54.632812 163.003906 54.304688 C 170.5625 49.578125 162.449219 38.207031 154.878906 42.941406 Z M 68.335938 24.160156 C 63.109375 16.847656 51.351562 24.183594 56.585938 31.507812 C 61.816406 38.816406 73.574219 31.484375 68.335938 24.160156 Z M 333.164062 115.832031 C 332.277344 115.65625 331.394531 115.476562 330.511719 115.300781 C 321.457031 113.46875 318.890625 126.695312 327.953125 128.527344 C 328.835938 128.707031 329.71875 128.882812 330.601562 129.0625 C 339.65625 130.890625 342.222656 117.664062 333.164062 115.832031 Z M 210.414062 7.671875 C 210.050781 7.167969 209.691406 6.664062 209.328125 6.15625 C 206.140625 1.703125 199.035156 -0.0351562 194.421875 3.144531 C 189.796875 6.335938 188.289062 12.398438 191.703125 17.175781 C 192.066406 17.683594 192.425781 18.1875 192.789062 18.691406 C 195.976562 23.148438 203.082031 24.882812 207.695312 21.703125 C 212.320312 18.511719 213.828125 12.449219 210.410156 7.671875 Z M 40.894531 65.433594 C 33.054688 54.464844 15.417969 65.464844 23.273438 76.449219 C 31.113281 87.417969 48.75 76.417969 40.894531 65.433594 Z M 98.449219 50.65625 C 98.285156 51.488281 98.125 52.320312 97.964844 53.152344 C 97.140625 57.414062 104.164062 58.832031 104.992188 54.570312 C 105.152344 53.738281 105.3125 52.90625 105.472656 52.078125 C 106.300781 47.8125 99.273438 46.390625 98.449219 50.65625 Z M 8.507812 92.257812 C 5.894531 88.601562 0.015625 92.269531 2.632812 95.929688 C 5.25 99.585938 11.125 95.917969 8.507812 92.257812 Z M 307.953125 124.253906 C 305.339844 120.601562 299.460938 124.265625 302.082031 127.929688 C 304.695312 131.582031 310.574219 127.917969 307.953125 124.253906 Z M 295.167969 99.640625 C 294.648438 99.96875 294.125 100.292969 293.601562 100.621094 C 289.820312 102.984375 293.878906 108.667969 297.664062 106.300781 C 298.1875 105.976562 298.710938 105.648438 299.230469 105.320312 C 303.011719 102.957031 298.953125 97.273438 295.167969 99.640625 Z M 246.335938 15.902344 C 243.722656 12.25 237.84375 15.914062 240.460938 19.578125 C 243.074219 23.230469 248.953125 19.566406 246.335938 15.902344 Z M 204.039062 42.347656 C 201.425781 38.691406 195.546875 42.359375 198.167969 46.019531 C 200.78125 49.675781 206.660156 46.007812 204.039062 42.347656 Z M 299.816406 24.117188 C 297.203125 20.464844 291.324219 24.128906 293.941406 27.792969 C 296.554688 31.445312 302.433594 27.777344 299.816406 24.117188 Z M 367.078125 105.097656 C 366.558594 105.425781 366.035156 105.753906 365.511719 106.078125 C 361.730469 108.441406 365.789062 114.125 369.574219 111.757812 C 370.097656 111.433594 370.621094 111.105469 371.140625 110.78125 C 374.921875 108.417969 370.863281 102.734375 367.078125 105.097656 Z M 331.699219 94.0625 C 329.085938 90.40625 323.207031 94.074219 325.828125 97.734375 C 328.441406 101.390625 334.320312 97.722656 331.699219 94.0625 Z M 244.476562 117.90625 C 241.859375 114.253906 235.984375 117.917969 238.601562 121.582031 C 241.214844 125.234375 247.09375 121.570312 244.476562 117.90625 Z M 264.488281 85.664062 C 261.875 82.011719 255.996094 85.675781 258.613281 89.339844 C 261.226562 92.992188 267.105469 89.324219 264.488281 85.664062 Z M 33.953125 39.082031 C 31.339844 35.425781 25.460938 39.09375 28.078125 42.753906 C 30.691406 46.410156 36.570312 42.742188 33.953125 39.082031 Z M 33.953125 39.082031 " fill-opacity="1" fill-rule="nonzero"/></svg>