<svg xmlns="http://www.w3.org/2000/svg" xmlns:xlink="http://www.w3.org/1999/xlink" width="500" zoomAndPan="magnify" viewBox="0 0 375 374.999991" height="500" preserveAspectRatio="xMidYMid meet" version="1.0"><defs><clipPath id="bb74368292"><path d="M 168.265625 349 L 194.738281 349 L 194.738281 374.671875 L 168.265625 374.671875 Z M 168.265625 349 " clip-rule="nonzero"/></clipPath><clipPath id="90c42d2061"><path d="M 7 0 L 140 0 L 140 335 L 7 335 Z M 7 0 " clip-rule="nonzero"/></clipPath><clipPath id="d690d71548"><path d="M 142.996094 -37.324219 L 131.527344 337.5 L 0.339844 333.488281 L 11.804688 -41.339844 Z M 142.996094 -37.324219 " clip-rule="nonzero"/></clipPath><clipPath id="36eb039687"><path d="M 142.996094 -37.324219 L 131.527344 337.5 L 0.339844 333.488281 L 11.804688 -41.339844 Z M 142.996094 -37.324219 " clip-rule="nonzero"/></clipPath></defs><path fill="#bef264" d="M 91.714844 301.378906 C 94.824219 303.988281 98.679688 305.035156 102.199219 304.597656 C 105.726562 304.167969 108.902344 302.265625 111 299.214844 C 113.09375 296.160156 113.785156 292.574219 113.390625 289.28125 C 112.984375 285.980469 111.507812 282.964844 108.941406 280.8125 C 106.371094 278.664062 103.140625 277.734375 99.824219 277.917969 C 96.511719 278.105469 93.105469 279.410156 90.460938 282.015625 C 87.828125 284.609375 86.511719 288.070312 86.707031 291.621094 C 86.890625 295.160156 88.601562 298.773438 91.714844 301.378906 " fill-opacity="1" fill-rule="nonzero"/><path fill="#bef264" d="M 78.261719 281.695312 C 81.5 282.003906 84.726562 280.933594 87.210938 278.621094 C 89.703125 276.300781 91.035156 273.222656 91.332031 270.1875 C 91.617188 267.136719 90.871094 264.125 88.964844 261.671875 C 87.058594 259.226562 84.320312 257.761719 81.292969 257.285156 C 78.28125 256.824219 74.96875 257.355469 72.113281 259.199219 C 69.257812 261.042969 67.425781 263.902344 66.921875 267.121094 C 66.414062 270.324219 67.25 273.878906 69.523438 276.796875 C 71.792969 279.71875 75.027344 281.402344 78.261719 281.695312 " fill-opacity="1" fill-rule="nonzero"/><path fill="#bef264" d="M 59.9375 254.289062 C 62.753906 255.191406 65.832031 254.882812 68.503906 253.324219 C 71.179688 251.761719 72.980469 249.292969 73.835938 246.640625 C 74.691406 243.980469 74.605469 241.128906 73.375 238.5625 C 72.144531 235.996094 69.976562 234.144531 67.371094 233.140625 C 64.765625 232.148438 61.710938 232.003906 58.816406 233.113281 C 55.925781 234.21875 53.757812 236.425781 52.699219 239.1875 C 51.636719 241.9375 51.695312 245.238281 53.144531 248.257812 C 54.589844 251.277344 57.125 253.394531 59.9375 254.289062 " fill-opacity="1" fill-rule="nonzero"/><path fill="#bef264" d="M 48.09375 223.6875 C 50.394531 225.03125 53.160156 225.371094 55.824219 224.535156 C 58.492188 223.691406 60.570312 221.875 61.839844 219.699219 C 63.113281 217.515625 63.589844 214.96875 62.996094 212.445312 C 62.398438 209.921875 60.832031 207.855469 58.714844 206.472656 C 56.597656 205.097656 53.929688 204.40625 51.171875 204.851562 C 48.410156 205.296875 46.09375 206.839844 44.636719 209.066406 C 43.183594 211.285156 42.609375 214.1875 43.300781 217.105469 C 43.984375 220.019531 45.800781 222.355469 48.09375 223.6875 " fill-opacity="1" fill-rule="nonzero"/><path fill="#bef264" d="M 55.964844 190.601562 C 57.488281 188.933594 58.386719 186.785156 58.339844 184.457031 C 58.289062 182.121094 57.300781 180.015625 55.707031 178.410156 C 54.109375 176.816406 51.902344 175.730469 49.414062 175.621094 C 46.925781 175.515625 44.621094 176.445312 42.949219 178.117188 C 41.273438 179.78125 40.238281 182.183594 40.300781 184.835938 C 40.355469 187.484375 41.484375 189.84375 43.226562 191.4375 C 44.96875 193.03125 47.3125 193.867188 49.792969 193.652344 C 52.273438 193.441406 54.4375 192.261719 55.964844 190.601562 " fill-opacity="1" fill-rule="nonzero"/><path fill="#bef264" d="M 47.640625 147.617188 C 45.902344 148.734375 44.578125 150.59375 44.132812 152.867188 C 43.6875 155.136719 44.21875 157.359375 45.414062 159.050781 C 46.601562 160.746094 48.445312 161.90625 50.609375 162.199219 C 52.78125 162.5 54.859375 161.902344 56.488281 160.761719 C 58.117188 159.613281 59.292969 157.925781 59.691406 155.902344 C 60.085938 153.878906 59.628906 151.871094 58.546875 150.199219 C 57.46875 148.527344 55.773438 147.191406 53.648438 146.652344 C 51.527344 146.113281 49.382812 146.492188 47.640625 147.617188 " fill-opacity="1" fill-rule="nonzero"/><path fill="#bef264" d="M 58.339844 131.703125 C 60.105469 132.367188 61.964844 132.257812 63.554688 131.597656 C 65.136719 130.9375 66.453125 129.726562 67.160156 128.078125 C 67.875 126.433594 67.851562 124.640625 67.25 123.035156 C 66.640625 121.429688 65.441406 120 63.75 119.171875 C 62.054688 118.339844 60.179688 118.28125 58.515625 118.910156 C 56.851562 119.535156 55.40625 120.847656 54.625 122.667969 C 53.839844 124.484375 53.878906 126.4375 54.558594 128.078125 C 55.242188 129.71875 56.574219 131.046875 58.339844 131.703125 " fill-opacity="1" fill-rule="nonzero"/><path fill="#bef264" d="M 75 93.214844 C 73.53125 93.4375 72.121094 94.253906 71.164062 95.59375 C 70.207031 96.9375 69.890625 98.535156 70.15625 99.996094 C 70.417969 101.460938 71.261719 102.789062 72.589844 103.65625 C 73.914062 104.523438 75.457031 104.773438 76.878906 104.519531 C 78.304688 104.261719 79.609375 103.496094 80.488281 102.257812 C 81.375 101.019531 81.675781 99.539062 81.457031 98.109375 C 81.238281 96.683594 80.5 95.304688 79.25 94.332031 C 78.003906 93.359375 76.472656 92.992188 75 93.214844 " fill-opacity="1" fill-rule="nonzero"/><path fill="#bef264" d="M 95.859375 80.828125 C 97.035156 80.867188 98.203125 80.484375 99.117188 79.648438 C 100.035156 78.816406 100.527344 77.6875 100.597656 76.519531 C 100.664062 75.347656 100.308594 74.132812 99.472656 73.160156 C 98.648438 72.1875 97.496094 71.640625 96.296875 71.574219 C 95.101562 71.5 93.855469 71.902344 92.878906 72.796875 C 91.902344 73.683594 91.386719 74.886719 91.34375 76.082031 C 91.296875 77.28125 91.730469 78.476562 92.621094 79.394531 C 93.515625 80.3125 94.691406 80.785156 95.859375 80.828125 " fill-opacity="1" fill-rule="nonzero"/><path fill="#bef264" d="M 122.28125 61.347656 C 123.921875 60.398438 124.523438 58.273438 123.59375 56.554688 C 122.660156 54.835938 120.476562 54.21875 118.738281 55.226562 C 116.996094 56.234375 116.441406 58.4375 117.46875 60.097656 C 118.5 61.757812 120.640625 62.296875 122.28125 61.347656 " fill-opacity="1" fill-rule="nonzero"/><path fill="#bef264" d="M 149.015625 48.296875 C 150.273438 47.894531 150.984375 46.539062 150.601562 45.25 C 150.21875 43.960938 148.835938 43.234375 147.527344 43.652344 C 146.21875 44.070312 145.519531 45.464844 145.957031 46.738281 C 146.390625 48.011719 147.757812 48.699219 149.015625 48.296875 " fill-opacity="1" fill-rule="nonzero"/><path fill="#bef264" d="M 178.148438 41.179688 C 178.878906 41.109375 179.417969 40.460938 179.355469 39.722656 C 179.292969 38.988281 178.632812 38.4375 177.886719 38.511719 C 177.140625 38.582031 176.605469 39.246094 176.683594 39.984375 C 176.765625 40.722656 177.414062 41.25 178.148438 41.179688 " fill-opacity="1" fill-rule="nonzero"/><path fill="#bef264" d="M 136.679688 313.285156 C 137.988281 310.144531 137.933594 306.792969 136.953125 303.90625 C 135.953125 301.007812 134.027344 298.574219 131.285156 297.125 C 128.542969 295.683594 125.441406 295.46875 122.488281 296.285156 C 119.546875 297.105469 116.753906 298.960938 114.90625 301.816406 C 113.066406 304.675781 112.582031 308.035156 113.445312 311.175781 C 114.304688 314.304688 116.527344 317.195312 119.808594 318.917969 C 123.078125 320.644531 126.722656 320.84375 129.785156 319.78125 C 132.867188 318.722656 135.363281 316.417969 136.679688 313.285156 " fill-opacity="1" fill-rule="nonzero"/><path fill="#bef264" d="M 156.773438 308.417969 C 154.023438 307.65625 151.207031 308.074219 148.734375 309.382812 C 146.273438 310.691406 144.160156 312.894531 143.089844 315.804688 C 142.027344 318.707031 142.261719 321.792969 143.648438 324.410156 C 145.015625 327.019531 147.542969 329.148438 150.773438 330.039062 C 153.996094 330.933594 157.261719 330.414062 159.78125 328.886719 C 162.316406 327.359375 164.105469 324.835938 164.6875 321.796875 C 165.277344 318.753906 164.59375 315.773438 163.160156 313.386719 C 161.71875 310.992188 159.515625 309.183594 156.773438 308.417969 " fill-opacity="1" fill-rule="nonzero"/><path fill="#bef264" d="M 183.171875 334.273438 C 186.164062 334.4375 188.917969 333.363281 190.851562 331.542969 C 192.785156 329.722656 193.902344 327.167969 193.859375 324.375 C 193.808594 321.578125 192.660156 319.070312 190.933594 317.234375 C 189.199219 315.390625 186.890625 314.207031 184.304688 314.0625 C 181.714844 313.917969 179.292969 314.832031 177.367188 316.46875 C 175.445312 318.105469 174.019531 320.464844 173.660156 323.242188 C 173.300781 326.011719 174.125 328.675781 175.84375 330.703125 C 177.558594 332.726562 180.175781 334.105469 183.171875 334.273438 " fill-opacity="1" fill-rule="nonzero"/><path fill="#bef264" d="M 215.464844 331.566406 C 218.085938 331.15625 220.273438 329.71875 221.617188 327.78125 C 222.964844 325.839844 223.480469 323.410156 222.9375 320.976562 C 222.394531 318.542969 220.933594 316.566406 219.085938 315.269531 C 217.234375 313.984375 214.984375 313.375 212.675781 313.734375 C 210.375 314.097656 208.417969 315.363281 207.042969 317.15625 C 205.675781 318.953125 204.890625 321.285156 205.121094 323.765625 C 205.347656 326.25 206.578125 328.402344 208.453125 329.835938 C 210.328125 331.277344 212.847656 331.976562 215.464844 331.566406 " fill-opacity="1" fill-rule="nonzero"/><path fill="#bef264" d="M 250.820312 317.8125 C 251.625 315.902344 251.625 313.722656 250.71875 311.726562 C 249.8125 309.734375 248.195312 308.292969 246.367188 307.527344 C 244.535156 306.757812 242.472656 306.65625 240.550781 307.402344 C 238.625 308.144531 237.171875 309.605469 236.332031 311.410156 C 235.492188 313.210938 235.269531 315.355469 235.9375 317.441406 C 236.609375 319.527344 238.078125 321.136719 239.957031 322.015625 C 241.828125 322.890625 244.109375 323.019531 246.265625 322.1875 C 248.425781 321.351562 250.027344 319.722656 250.820312 317.8125 " fill-opacity="1" fill-rule="nonzero"/><path fill="#bef264" d="M 271.582031 294.203125 C 269.894531 293.886719 268.128906 294.179688 266.632812 295.167969 C 265.136719 296.15625 264.175781 297.664062 263.800781 299.339844 C 263.429688 301.015625 263.648438 302.867188 264.613281 304.492188 C 265.570312 306.113281 267.109375 307.191406 268.84375 307.574219 C 270.582031 307.960938 272.511719 307.65625 274.160156 306.5625 C 275.808594 305.472656 276.855469 303.824219 277.179688 302.078125 C 277.503906 300.324219 277.117188 298.488281 276.003906 296.96875 C 274.890625 295.445312 273.269531 294.519531 271.582031 294.203125 " fill-opacity="1" fill-rule="nonzero"/><path fill="#bef264" d="M 288.125 281.46875 C 288.121094 282.914062 288.644531 284.394531 289.726562 285.546875 C 290.8125 286.695312 292.269531 287.292969 293.757812 287.300781 C 295.242188 287.304688 296.765625 286.714844 297.914062 285.535156 C 299.0625 284.359375 299.625 282.828125 299.585938 281.34375 C 299.546875 279.855469 298.917969 278.410156 297.742188 277.351562 C 296.5625 276.289062 295.074219 275.804688 293.632812 275.839844 C 292.1875 275.878906 290.78125 276.4375 289.71875 277.523438 C 288.660156 278.609375 288.128906 280.023438 288.125 281.46875 " fill-opacity="1" fill-rule="nonzero"/><path fill="#bef264" d="M 316.554688 260.15625 C 317.257812 259.042969 317.4375 257.742188 317.15625 256.582031 C 316.878906 255.410156 316.140625 254.371094 315.039062 253.730469 C 313.929688 253.082031 312.675781 252.941406 311.535156 253.214844 C 310.394531 253.488281 309.367188 254.171875 308.710938 255.21875 C 308.054688 256.265625 307.878906 257.484375 308.125 258.628906 C 308.367188 259.777344 309.039062 260.851562 310.097656 261.570312 C 311.160156 262.285156 312.414062 262.503906 313.585938 262.246094 C 314.757812 261.996094 315.851562 261.277344 316.554688 260.15625 " fill-opacity="1" fill-rule="nonzero"/><path fill="#bef264" d="M 327.160156 227.078125 C 325.304688 226.460938 323.316406 227.425781 322.667969 229.207031 C 322.019531 230.988281 322.929688 233.003906 324.746094 233.722656 C 326.558594 234.445312 328.628906 233.511719 329.316406 231.625 C 330.003906 229.734375 329.015625 227.6875 327.160156 227.078125 " fill-opacity="1" fill-rule="nonzero"/><path fill="#bef264" d="M 333.550781 198.503906 C 332.210938 198.351562 331.007812 199.292969 330.828125 200.601562 C 330.652344 201.90625 331.570312 203.128906 332.902344 203.335938 C 334.234375 203.542969 335.480469 202.609375 335.667969 201.246094 C 335.847656 199.886719 334.890625 198.65625 333.550781 198.503906 " fill-opacity="1" fill-rule="nonzero"/><path fill="#bef264" d="M 334.167969 171.902344 C 334.90625 171.851562 335.464844 171.207031 335.402344 170.457031 C 335.34375 169.710938 334.691406 169.164062 333.953125 169.226562 C 333.214844 169.292969 332.671875 169.941406 332.726562 170.671875 C 332.789062 171.398438 333.425781 171.953125 334.167969 171.902344 " fill-opacity="1" fill-rule="nonzero"/><path fill="#bef264" d="M 92.5625 317.726562 C 92.054688 313.554688 90.183594 309.734375 86.933594 307.011719 C 83.683594 304.289062 79.597656 303.117188 75.398438 303.34375 C 71.207031 303.585938 66.894531 305.238281 63.554688 308.53125 C 60.21875 311.8125 58.550781 316.191406 58.800781 320.683594 C 59.03125 325.164062 61.199219 329.734375 65.136719 333.03125 C 69.074219 336.332031 73.957031 337.65625 78.402344 337.105469 C 82.867188 336.5625 86.886719 334.152344 89.539062 330.292969 C 92.191406 326.425781 93.0625 321.894531 92.5625 317.726562 " fill-opacity="1" fill-rule="nonzero"/><path fill="#bef264" d="M 64.652344 293.5625 C 65.011719 289.710938 64.0625 285.890625 61.65625 282.796875 C 59.25 279.695312 55.777344 277.839844 51.957031 277.242188 C 48.140625 276.65625 43.953125 277.332031 40.332031 279.664062 C 36.71875 281.992188 34.402344 285.613281 33.765625 289.683594 C 33.125 293.742188 34.179688 298.234375 37.058594 301.929688 C 39.933594 305.625 44.027344 307.753906 48.113281 308.128906 C 52.214844 308.515625 56.292969 307.164062 59.441406 304.234375 C 62.597656 301.300781 64.28125 297.410156 64.652344 293.5625 " fill-opacity="1" fill-rule="nonzero"/><path fill="#bef264" d="M 42.515625 263.769531 C 43.59375 260.402344 43.492188 256.800781 41.9375 253.550781 C 40.375 250.304688 37.632812 247.964844 34.332031 246.691406 C 31.039062 245.4375 27.175781 245.253906 23.511719 246.65625 C 19.855469 248.058594 17.117188 250.847656 15.773438 254.34375 C 14.425781 257.824219 14.5 262.003906 16.339844 265.820312 C 18.167969 269.644531 21.375 272.316406 24.929688 273.449219 C 28.496094 274.59375 32.386719 274.203125 35.773438 272.230469 C 39.160156 270.253906 41.433594 267.128906 42.515625 263.769531 " fill-opacity="1" fill-rule="nonzero"/><path fill="#bef264" d="M 19.726562 235.800781 C 23.101562 234.734375 25.730469 232.441406 27.339844 229.683594 C 28.949219 226.917969 29.554688 223.699219 28.800781 220.507812 C 28.046875 217.3125 26.0625 214.703125 23.378906 212.953125 C 20.707031 211.210938 17.328125 210.332031 13.835938 210.894531 C 10.347656 211.457031 7.410156 213.414062 5.570312 216.234375 C 3.730469 219.042969 3 222.710938 3.878906 226.398438 C 4.746094 230.089844 7.046875 233.046875 9.949219 234.734375 C 12.855469 236.429688 16.355469 236.859375 19.726562 235.800781 " fill-opacity="1" fill-rule="nonzero"/><path fill="#bef264" d="M 12.09375 196.730469 C 15.238281 196.464844 17.96875 194.96875 19.898438 192.867188 C 21.832031 190.757812 22.976562 188.039062 22.910156 185.089844 C 22.847656 182.136719 21.59375 179.472656 19.574219 177.449219 C 17.558594 175.429688 14.765625 174.054688 11.613281 173.917969 C 8.464844 173.78125 5.550781 174.957031 3.4375 177.070312 C 1.320312 179.175781 0.0117188 182.21875 0.0820312 185.570312 C 0.152344 188.921875 1.582031 191.910156 3.789062 193.921875 C 5.992188 195.945312 8.953125 196.996094 12.09375 196.730469 " fill-opacity="1" fill-rule="nonzero"/><path fill="#bef264" d="M 13.136719 156.933594 C 15.878906 157.308594 18.511719 156.554688 20.566406 155.109375 C 22.625 153.664062 24.121094 151.527344 24.621094 148.964844 C 25.121094 146.402344 24.539062 143.867188 23.171875 141.746094 C 21.808594 139.632812 19.65625 137.945312 16.972656 137.261719 C 14.292969 136.574219 11.574219 137.058594 9.375 138.480469 C 7.171875 139.894531 5.496094 142.25 4.933594 145.121094 C 4.371094 148 5.042969 150.808594 6.546875 152.949219 C 8.054688 155.09375 10.390625 156.5625 13.136719 156.933594 " fill-opacity="1" fill-rule="nonzero"/><path fill="#bef264" d="M 22.910156 118.347656 C 25.144531 119.1875 27.5 119.050781 29.503906 118.214844 C 31.511719 117.375 33.171875 115.84375 34.074219 113.757812 C 34.972656 111.675781 34.945312 109.417969 34.183594 107.378906 C 33.410156 105.347656 31.894531 103.539062 29.753906 102.492188 C 27.613281 101.4375 25.238281 101.363281 23.128906 102.160156 C 21.027344 102.949219 19.199219 104.613281 18.207031 106.914062 C 17.214844 109.210938 17.261719 111.683594 18.125 113.753906 C 18.992188 115.835938 20.675781 117.511719 22.910156 118.347656 " fill-opacity="1" fill-rule="nonzero"/><path fill="#bef264" d="M 40.941406 82.855469 C 42.617188 83.953125 44.570312 84.273438 46.371094 83.953125 C 48.167969 83.625 49.820312 82.652344 50.9375 81.089844 C 52.050781 79.53125 52.4375 77.652344 52.164062 75.84375 C 51.886719 74.035156 50.949219 72.289062 49.367188 71.058594 C 47.789062 69.832031 45.851562 69.363281 43.988281 69.648438 C 42.128906 69.929688 40.34375 70.964844 39.136719 72.660156 C 37.921875 74.355469 37.523438 76.375 37.859375 78.226562 C 38.195312 80.078125 39.265625 81.761719 40.941406 82.855469 " fill-opacity="1" fill-rule="nonzero"/><path fill="#bef264" d="M 70.382812 53.972656 C 71.867188 54.027344 73.347656 53.539062 74.503906 52.484375 C 75.660156 51.429688 76.289062 50.003906 76.378906 48.523438 C 76.460938 47.042969 76.011719 45.507812 74.960938 44.273438 C 73.914062 43.039062 72.457031 42.351562 70.941406 42.265625 C 69.421875 42.171875 67.851562 42.6875 66.613281 43.8125 C 65.375 44.9375 64.71875 46.457031 64.667969 47.96875 C 64.609375 49.488281 65.160156 51.003906 66.289062 52.164062 C 67.414062 53.324219 68.902344 53.917969 70.382812 53.972656 " fill-opacity="1" fill-rule="nonzero"/><path fill="#bef264" d="M 103.8125 29.328125 C 105.890625 28.125 106.644531 25.433594 105.46875 23.261719 C 104.296875 21.089844 101.53125 20.308594 99.332031 21.585938 C 97.125 22.859375 96.429688 25.644531 97.726562 27.742188 C 99.027344 29.847656 101.738281 30.53125 103.8125 29.328125 " fill-opacity="1" fill-rule="nonzero"/><path fill="#bef264" d="M 137.640625 12.816406 C 139.226562 12.308594 140.132812 10.59375 139.644531 8.964844 C 139.15625 7.332031 137.410156 6.40625 135.757812 6.9375 C 134.097656 7.46875 133.210938 9.230469 133.769531 10.839844 C 134.320312 12.457031 136.046875 13.324219 137.640625 12.816406 " fill-opacity="1" fill-rule="nonzero"/><path fill="#bef264" d="M 174.5 3.8125 C 175.421875 3.722656 176.105469 2.898438 176.027344 1.964844 C 175.941406 1.035156 175.117188 0.339844 174.167969 0.4375 C 173.226562 0.523438 172.546875 1.363281 172.648438 2.292969 C 172.75 3.226562 173.578125 3.902344 174.5 3.8125 " fill-opacity="1" fill-rule="nonzero"/><path fill="#bef264" d="M 115.207031 327.652344 C 111.734375 325.824219 107.8125 325.558594 104.074219 326.589844 C 100.355469 327.625 96.820312 329.972656 94.484375 333.589844 C 92.15625 337.199219 91.539062 341.457031 92.640625 345.425781 C 93.722656 349.386719 96.53125 353.042969 100.679688 355.222656 C 104.824219 357.40625 109.433594 357.660156 113.308594 356.316406 C 117.207031 354.976562 120.367188 352.058594 122.027344 348.097656 C 123.691406 344.125 123.621094 339.878906 122.375 336.226562 C 121.113281 332.566406 118.675781 329.480469 115.207031 327.652344 " fill-opacity="1" fill-rule="nonzero"/><path fill="#bef264" d="M 147.453125 341.941406 C 143.980469 340.980469 140.417969 341.503906 137.289062 343.15625 C 134.171875 344.8125 131.492188 347.601562 130.140625 351.285156 C 128.796875 354.960938 129.09375 358.863281 130.84375 362.167969 C 132.582031 365.472656 135.777344 368.164062 139.859375 369.292969 C 143.945312 370.425781 148.074219 369.769531 151.257812 367.835938 C 154.464844 365.902344 156.730469 362.714844 157.472656 358.867188 C 158.214844 355.015625 157.355469 351.246094 155.535156 348.222656 C 153.707031 345.195312 150.925781 342.902344 147.453125 341.941406 " fill-opacity="1" fill-rule="nonzero"/><g clip-path="url(#bb74368292)"><path fill="#bef264" d="M 182.289062 349.078125 C 179.015625 348.894531 175.949219 350.054688 173.507812 352.125 C 171.082031 354.195312 169.277344 357.183594 168.824219 360.695312 C 168.371094 364.195312 169.40625 367.566406 171.585938 370.132812 C 173.757812 372.695312 177.066406 374.4375 180.855469 374.648438 C 184.644531 374.863281 188.128906 373.503906 190.566406 371.195312 C 193.019531 368.894531 194.429688 365.660156 194.375 362.128906 C 194.3125 358.589844 192.855469 355.417969 190.675781 353.085938 C 188.480469 350.757812 185.5625 349.261719 182.289062 349.078125 " fill-opacity="1" fill-rule="nonzero"/></g><path fill="#bef264" d="M 226.300781 350.613281 C 223.949219 348.980469 221.109375 348.214844 218.191406 348.667969 C 215.273438 349.125 212.792969 350.722656 211.058594 352.996094 C 209.328125 355.265625 208.339844 358.21875 208.625 361.359375 C 208.914062 364.5 210.46875 367.226562 212.847656 369.039062 C 215.214844 370.863281 218.402344 371.746094 221.71875 371.226562 C 225.035156 370.714844 227.800781 368.890625 229.503906 366.4375 C 231.210938 363.984375 231.859375 360.90625 231.167969 357.828125 C 230.484375 354.75 228.640625 352.246094 226.300781 350.613281 " fill-opacity="1" fill-rule="nonzero"/><path fill="#bef264" d="M 260.816406 340.8125 C 258.492188 339.839844 255.890625 339.710938 253.453125 340.648438 C 251.023438 341.597656 249.179688 343.441406 248.113281 345.71875 C 247.054688 348 246.773438 350.722656 247.621094 353.359375 C 248.472656 355.992188 250.328125 358.035156 252.703125 359.140625 C 255.074219 360.25 257.960938 360.417969 260.6875 359.359375 C 263.417969 358.304688 265.445312 356.238281 266.453125 353.828125 C 267.464844 351.410156 267.464844 348.648438 266.320312 346.128906 C 265.175781 343.605469 263.132812 341.785156 260.816406 340.8125 " fill-opacity="1" fill-rule="nonzero"/><path fill="#bef264" d="M 292.722656 323.949219 C 290.582031 323.554688 288.351562 323.921875 286.457031 325.175781 C 284.566406 326.425781 283.34375 328.328125 282.871094 330.453125 C 282.40625 332.574219 282.683594 334.917969 283.898438 336.96875 C 285.113281 339.023438 287.054688 340.386719 289.257812 340.871094 C 291.449219 341.363281 293.894531 340.972656 295.980469 339.59375 C 298.070312 338.21875 299.386719 336.121094 299.796875 333.914062 C 300.214844 331.703125 299.722656 329.375 298.3125 327.449219 C 296.902344 325.527344 294.855469 324.351562 292.722656 323.949219 " fill-opacity="1" fill-rule="nonzero"/><path fill="#bef264" d="M 320.621094 300.71875 C 318.785156 300.769531 317.007812 301.472656 315.664062 302.847656 C 314.324219 304.21875 313.65625 306.011719 313.648438 307.84375 C 313.644531 309.675781 314.300781 311.542969 315.675781 312.996094 C 317.050781 314.453125 318.890625 315.214844 320.773438 315.214844 C 322.65625 315.226562 324.578125 314.476562 326.035156 312.988281 C 327.488281 311.496094 328.199219 309.558594 328.148438 307.679688 C 328.101562 305.792969 327.300781 303.96875 325.8125 302.628906 C 324.328125 301.289062 322.445312 300.675781 320.621094 300.71875 " fill-opacity="1" fill-rule="nonzero"/><path fill="#bef264" d="M 347.703125 272.742188 C 346.300781 271.921875 344.710938 271.746094 343.265625 272.089844 C 341.828125 272.4375 340.53125 273.304688 339.699219 274.625 C 338.863281 275.949219 338.640625 277.496094 338.953125 278.945312 C 339.265625 280.394531 340.113281 281.753906 341.449219 282.664062 C 342.796875 283.570312 344.378906 283.84375 345.863281 283.523438 C 347.347656 283.203125 348.726562 282.292969 349.617188 280.875 C 350.511719 279.460938 350.738281 277.820312 350.386719 276.34375 C 350.03125 274.871094 349.097656 273.558594 347.703125 272.742188 " fill-opacity="1" fill-rule="nonzero"/><path fill="#bef264" d="M 363.039062 239.019531 C 360.691406 238.242188 358.175781 239.460938 357.359375 241.714844 C 356.539062 243.96875 357.683594 246.515625 359.984375 247.429688 C 362.277344 248.339844 364.902344 247.160156 365.769531 244.769531 C 366.636719 242.378906 365.386719 239.792969 363.039062 239.019531 " fill-opacity="1" fill-rule="nonzero"/><path fill="#bef264" d="M 371.125 202.871094 C 369.433594 202.675781 367.90625 203.863281 367.683594 205.515625 C 367.464844 207.171875 368.617188 208.722656 370.304688 208.984375 C 371.988281 209.246094 373.570312 208.0625 373.800781 206.339844 C 374.035156 204.613281 372.820312 203.0625 371.125 202.871094 " fill-opacity="1" fill-rule="nonzero"/><path fill="#bef264" d="M 371.902344 169.207031 C 372.835938 169.144531 373.546875 168.324219 373.46875 167.382812 C 373.398438 166.4375 372.570312 165.742188 371.640625 165.824219 C 370.703125 165.90625 370.015625 166.722656 370.085938 167.652344 C 370.164062 168.570312 370.964844 169.273438 371.902344 169.207031 " fill-opacity="1" fill-rule="nonzero"/><path fill="#bef264" d="M 121.027344 278.875 C 123.816406 278.535156 126.324219 277.03125 127.976562 274.625 C 129.636719 272.207031 130.183594 269.375 129.867188 266.777344 C 129.550781 264.167969 128.382812 261.785156 126.351562 260.085938 C 124.324219 258.382812 121.773438 257.652344 119.148438 257.792969 C 116.535156 257.945312 113.839844 258.976562 111.757812 261.035156 C 109.667969 263.082031 108.632812 265.816406 108.785156 268.621094 C 108.929688 271.421875 110.285156 274.273438 112.746094 276.332031 C 115.203125 278.390625 118.25 279.226562 121.027344 278.875 " fill-opacity="1" fill-rule="nonzero"/><path fill="#bef264" d="M 104.515625 241.496094 C 102.128906 241.125 99.511719 241.550781 97.253906 243.007812 C 95 244.464844 93.550781 246.722656 93.15625 249.261719 C 92.753906 251.796875 93.410156 254.605469 95.207031 256.910156 C 97.003906 259.222656 99.558594 260.550781 102.113281 260.785156 C 104.675781 261.023438 107.222656 260.179688 109.1875 258.351562 C 111.15625 256.519531 112.207031 254.089844 112.445312 251.6875 C 112.664062 249.28125 112.074219 246.894531 110.570312 244.960938 C 109.0625 243.027344 106.902344 241.871094 104.515625 241.496094 " fill-opacity="1" fill-rule="nonzero"/><path fill="#bef264" d="M 86.75 222.394531 C 84.46875 223.269531 82.757812 225.011719 81.917969 227.195312 C 81.074219 229.371094 81.125 231.976562 82.269531 234.363281 C 83.410156 236.75 85.417969 238.417969 87.632812 239.125 C 89.863281 239.84375 92.292969 239.597656 94.402344 238.363281 C 96.523438 237.128906 97.941406 235.179688 98.621094 233.085938 C 99.292969 230.980469 99.226562 228.730469 98.253906 226.699219 C 97.28125 224.671875 95.566406 223.210938 93.507812 222.421875 C 91.453125 221.632812 89.035156 221.515625 86.75 222.394531 " fill-opacity="1" fill-rule="nonzero"/><path fill="#bef264" d="M 86.667969 201.347656 C 85 200.265625 82.886719 199.714844 80.707031 200.066406 C 78.527344 200.417969 76.695312 201.636719 75.550781 203.398438 C 74.394531 205.148438 73.941406 207.445312 74.488281 209.746094 C 75.03125 212.050781 76.46875 213.898438 78.28125 214.949219 C 80.097656 216.007812 82.28125 216.28125 84.386719 215.617188 C 86.496094 214.953125 88.136719 213.519531 89.140625 211.796875 C 90.144531 210.070312 90.523438 208.058594 90.054688 206.066406 C 89.578125 204.074219 88.34375 202.441406 86.667969 201.347656 " fill-opacity="1" fill-rule="nonzero"/><path fill="#bef264" d="M 79.316406 176.972656 C 77.351562 176.886719 75.535156 177.621094 74.214844 178.941406 C 72.890625 180.257812 72.074219 182.160156 72.117188 184.25 C 72.160156 186.34375 73.058594 188.207031 74.4375 189.464844 C 75.808594 190.726562 77.660156 191.386719 79.617188 191.21875 C 81.582031 191.050781 83.289062 190.117188 84.496094 188.808594 C 85.703125 187.492188 86.414062 185.792969 86.375 183.949219 C 86.335938 182.109375 85.554688 180.445312 84.289062 179.179688 C 83.03125 177.917969 81.289062 177.058594 79.316406 176.972656 " fill-opacity="1" fill-rule="nonzero"/><path fill="#bef264" d="M 77.921875 154.84375 C 76.546875 155.726562 75.5 157.199219 75.148438 158.996094 C 74.800781 160.789062 75.21875 162.542969 76.160156 163.878906 C 77.097656 165.21875 78.554688 166.136719 80.269531 166.371094 C 81.984375 166.605469 83.625 166.128906 84.910156 165.230469 C 86.199219 164.324219 87.128906 162.992188 87.441406 161.394531 C 87.753906 159.792969 87.394531 158.207031 86.539062 156.882812 C 85.691406 155.566406 84.34375 154.511719 82.667969 154.082031 C 80.992188 153.65625 79.296875 153.957031 77.921875 154.84375 " fill-opacity="1" fill-rule="nonzero"/><path fill="#bef264" d="M 86.375 142.273438 C 87.765625 142.792969 89.238281 142.710938 90.492188 142.1875 C 91.746094 141.667969 92.78125 140.707031 93.347656 139.410156 C 93.90625 138.109375 93.894531 136.695312 93.414062 135.421875 C 92.933594 134.152344 91.984375 133.023438 90.644531 132.367188 C 89.308594 131.714844 87.828125 131.667969 86.515625 132.164062 C 85.199219 132.660156 84.058594 133.695312 83.4375 135.128906 C 82.816406 136.570312 82.847656 138.113281 83.386719 139.402344 C 83.925781 140.703125 84.980469 141.75 86.375 142.273438 " fill-opacity="1" fill-rule="nonzero"/><path fill="#bef264" d="M 102.894531 112.746094 C 101.910156 111.976562 100.699219 111.683594 99.539062 111.863281 C 98.375 112.039062 97.261719 112.683594 96.503906 113.746094 C 95.75 114.804688 95.5 116.066406 95.710938 117.222656 C 95.917969 118.375 96.585938 119.425781 97.632812 120.109375 C 98.679688 120.796875 99.898438 120.996094 101.023438 120.792969 C 102.148438 120.589844 103.179688 119.984375 103.875 119.007812 C 104.570312 118.03125 104.8125 116.859375 104.640625 115.730469 C 104.464844 114.601562 103.882812 113.511719 102.894531 112.746094 " fill-opacity="1" fill-rule="nonzero"/><path fill="#bef264" d="M 118.59375 101.144531 C 120.027344 99.835938 120.179688 97.5625 118.875 96.019531 C 117.574219 94.46875 115.21875 94.316406 113.664062 95.730469 C 112.109375 97.140625 112.046875 99.5 113.460938 100.945312 C 114.878906 102.386719 117.152344 102.449219 118.59375 101.144531 " fill-opacity="1" fill-rule="nonzero"/><path fill="#bef264" d="M 136.890625 86.683594 C 138.1875 85.933594 138.660156 84.253906 137.933594 82.898438 C 137.199219 81.535156 135.46875 81.054688 134.09375 81.847656 C 132.71875 82.644531 132.28125 84.382812 133.097656 85.699219 C 133.90625 87.007812 135.597656 87.433594 136.890625 86.683594 " fill-opacity="1" fill-rule="nonzero"/><path fill="#bef264" d="M 158.015625 76.375 C 159.011719 76.054688 159.574219 74.984375 159.269531 73.964844 C 158.964844 72.949219 157.875 72.371094 156.839844 72.703125 C 155.808594 73.03125 155.257812 74.132812 155.601562 75.140625 C 155.945312 76.148438 157.023438 76.691406 158.015625 76.375 " fill-opacity="1" fill-rule="nonzero"/><path fill="#bef264" d="M 181.035156 70.75 C 181.609375 70.695312 182.035156 70.183594 181.988281 69.59375 C 181.933594 69.015625 181.417969 68.582031 180.832031 68.640625 C 180.242188 68.699219 179.8125 69.222656 179.878906 69.804688 C 179.941406 70.386719 180.460938 70.804688 181.035156 70.75 " fill-opacity="1" fill-rule="nonzero"/><path fill="#bef264" d="M 134.9375 290.191406 C 137.523438 291.554688 140.402344 291.710938 142.824219 290.875 C 145.257812 290.035156 147.230469 288.214844 148.265625 285.738281 C 149.304688 283.261719 149.261719 280.613281 148.484375 278.328125 C 147.695312 276.042969 146.175781 274.117188 144.007812 272.972656 C 141.835938 271.832031 139.390625 271.667969 137.054688 272.308594 C 134.734375 272.957031 132.527344 274.417969 131.070312 276.679688 C 129.613281 278.9375 129.226562 281.59375 129.917969 284.070312 C 130.59375 286.546875 132.351562 288.832031 134.9375 290.191406 " fill-opacity="1" fill-rule="nonzero"/><path fill="#bef264" d="M 169.195312 285.820312 C 168.050781 283.929688 166.3125 282.5 164.148438 281.894531 C 161.980469 281.292969 159.75 281.625 157.796875 282.65625 C 155.851562 283.691406 154.179688 285.429688 153.335938 287.730469 C 152.496094 290.027344 152.679688 292.460938 153.777344 294.527344 C 154.863281 296.589844 156.855469 298.273438 159.40625 298.972656 C 161.953125 299.6875 164.53125 299.277344 166.523438 298.066406 C 168.523438 296.859375 169.9375 294.867188 170.402344 292.464844 C 170.863281 290.0625 170.324219 287.707031 169.195312 285.820312 " fill-opacity="1" fill-rule="nonzero"/><path fill="#bef264" d="M 185.902344 286.351562 C 183.855469 286.238281 181.9375 286.964844 180.417969 288.253906 C 178.898438 289.546875 177.773438 291.414062 177.492188 293.605469 C 177.207031 295.796875 177.855469 297.902344 179.210938 299.5 C 180.570312 301.105469 182.640625 302.1875 185.003906 302.320312 C 187.371094 302.453125 189.542969 301.605469 191.070312 300.167969 C 192.597656 298.726562 193.480469 296.707031 193.445312 294.5 C 193.410156 292.292969 192.5 290.3125 191.136719 288.859375 C 189.765625 287.402344 187.945312 286.46875 185.902344 286.351562 " fill-opacity="1" fill-rule="nonzero"/><path fill="#bef264" d="M 210.519531 300.183594 C 212.589844 299.863281 214.320312 298.726562 215.378906 297.191406 C 216.449219 295.660156 216.851562 293.738281 216.421875 291.820312 C 215.996094 289.898438 214.839844 288.332031 213.382812 287.308594 C 211.914062 286.292969 210.140625 285.8125 208.316406 286.097656 C 206.5 286.382812 204.949219 287.382812 203.863281 288.800781 C 202.785156 290.21875 202.164062 292.0625 202.34375 294.023438 C 202.527344 295.980469 203.496094 297.6875 204.980469 298.820312 C 206.460938 299.957031 208.449219 300.511719 210.519531 300.183594 " fill-opacity="1" fill-rule="nonzero"/><path fill="#bef264" d="M 238.449219 289.316406 C 239.085938 287.808594 239.085938 286.085938 238.367188 284.511719 C 237.65625 282.9375 236.382812 281.796875 234.9375 281.191406 C 233.484375 280.585938 231.859375 280.503906 230.339844 281.09375 C 228.816406 281.679688 227.667969 282.832031 227.003906 284.257812 C 226.34375 285.679688 226.164062 287.378906 226.699219 289.023438 C 227.226562 290.671875 228.386719 291.945312 229.871094 292.640625 C 231.347656 293.328125 233.152344 293.4375 234.859375 292.773438 C 236.5625 292.117188 237.824219 290.824219 238.449219 289.316406 " fill-opacity="1" fill-rule="nonzero"/><path fill="#bef264" d="M 252.695312 281.230469 C 254.066406 281.535156 255.589844 281.292969 256.890625 280.433594 C 258.195312 279.570312 259.023438 278.265625 259.277344 276.882812 C 259.535156 275.503906 259.230469 274.046875 258.347656 272.847656 C 257.46875 271.644531 256.191406 270.914062 254.859375 270.660156 C 253.523438 270.414062 252.128906 270.644531 250.945312 271.425781 C 249.769531 272.207031 249.003906 273.394531 248.710938 274.722656 C 248.417969 276.050781 248.589844 277.511719 249.347656 278.792969 C 250.109375 280.074219 251.324219 280.925781 252.695312 281.230469 " fill-opacity="1" fill-rule="nonzero"/><path fill="#bef264" d="M 267.929688 260.605469 C 267.925781 261.746094 268.335938 262.914062 269.195312 263.824219 C 270.054688 264.730469 271.199219 265.207031 272.378906 265.210938 C 273.554688 265.214844 274.753906 264.746094 275.664062 263.816406 C 276.570312 262.886719 277.015625 261.679688 276.980469 260.503906 C 276.949219 259.328125 276.457031 258.1875 275.523438 257.347656 C 274.59375 256.511719 273.417969 256.128906 272.277344 256.15625 C 271.136719 256.183594 270.027344 256.625 269.1875 257.484375 C 268.347656 258.339844 267.929688 259.460938 267.929688 260.605469 " fill-opacity="1" fill-rule="nonzero"/><path fill="#bef264" d="M 285.292969 244.878906 C 286.957031 246.023438 289.273438 245.539062 290.390625 243.765625 C 291.507812 241.988281 290.9375 239.695312 289.191406 238.683594 C 287.441406 237.675781 285.234375 238.21875 284.191406 239.859375 C 283.15625 241.507812 283.621094 243.734375 285.292969 244.878906 " fill-opacity="1" fill-rule="nonzero"/><path fill="#bef264" d="M 298.773438 217.628906 C 297.300781 217.144531 295.734375 217.902344 295.226562 219.308594 C 294.710938 220.71875 295.429688 222.308594 296.863281 222.878906 C 298.292969 223.445312 299.929688 222.710938 300.476562 221.21875 C 301.011719 219.726562 300.230469 218.109375 298.773438 217.628906 " fill-opacity="1" fill-rule="nonzero"/><path fill="#bef264" d="M 303.816406 195.050781 C 302.761719 194.929688 301.808594 195.671875 301.667969 196.707031 C 301.53125 197.738281 302.25 198.707031 303.304688 198.871094 C 304.359375 199.035156 305.34375 198.296875 305.492188 197.222656 C 305.632812 196.144531 304.875 195.171875 303.816406 195.050781 " fill-opacity="1" fill-rule="nonzero"/><path fill="#bef264" d="M 304.304688 174.03125 C 304.886719 173.992188 305.328125 173.480469 305.285156 172.894531 C 305.234375 172.304688 304.722656 171.871094 304.140625 171.917969 C 303.554688 171.972656 303.125 172.480469 303.167969 173.058594 C 303.214844 173.640625 303.71875 174.074219 304.304688 174.03125 " fill-opacity="1" fill-rule="nonzero"/><path fill="#bef264" d="M 125.980469 250.71875 C 126.09375 252.9375 127.167969 255.203125 129.117188 256.832031 C 131.066406 258.464844 133.480469 259.125 135.6875 258.851562 C 137.898438 258.582031 139.886719 257.390625 141.199219 255.476562 C 142.515625 253.558594 142.949219 251.316406 142.699219 249.253906 C 142.449219 247.183594 141.519531 245.292969 139.910156 243.945312 C 138.304688 242.59375 136.277344 242.015625 134.195312 242.128906 C 132.125 242.25 129.988281 243.066406 128.328125 244.695312 C 126.679688 246.324219 125.855469 248.496094 125.980469 250.71875 " fill-opacity="1" fill-rule="nonzero"/><path fill="#bef264" d="M 122.585938 229.199219 C 120.699219 228.910156 118.625 229.246094 116.832031 230.402344 C 115.039062 231.554688 113.894531 233.347656 113.578125 235.367188 C 113.261719 237.371094 113.785156 239.597656 115.210938 241.425781 C 116.632812 243.257812 118.660156 244.3125 120.683594 244.5 C 122.714844 244.691406 124.734375 244.019531 126.292969 242.570312 C 127.855469 241.117188 128.695312 239.1875 128.878906 237.285156 C 129.054688 235.378906 128.585938 233.484375 127.394531 231.953125 C 126.199219 230.417969 124.480469 229.5 122.585938 229.199219 " fill-opacity="1" fill-rule="nonzero"/><path fill="#bef264" d="M 108.5 214.054688 C 106.691406 214.746094 105.332031 216.128906 104.667969 217.859375 C 104 219.582031 104.035156 221.652344 104.941406 223.542969 C 105.851562 225.4375 107.441406 226.761719 109.199219 227.324219 C 110.964844 227.890625 112.898438 227.695312 114.574219 226.71875 C 116.25 225.742188 117.375 224.191406 117.914062 222.53125 C 118.449219 220.859375 118.394531 219.078125 117.625 217.464844 C 116.855469 215.859375 115.492188 214.699219 113.859375 214.070312 C 112.226562 213.449219 110.316406 213.355469 108.5 214.054688 " fill-opacity="1" fill-rule="nonzero"/><path fill="#bef264" d="M 108.4375 197.359375 C 107.109375 196.496094 105.4375 196.0625 103.707031 196.34375 C 101.980469 196.617188 100.523438 197.585938 99.609375 198.980469 C 98.703125 200.375 98.34375 202.191406 98.773438 204.019531 C 99.203125 205.847656 100.34375 207.3125 101.78125 208.144531 C 103.222656 208.988281 104.953125 209.203125 106.625 208.675781 C 108.292969 208.148438 109.597656 207.007812 110.394531 205.644531 C 111.195312 204.277344 111.496094 202.679688 111.117188 201.097656 C 110.746094 199.519531 109.761719 198.226562 108.4375 197.359375 " fill-opacity="1" fill-rule="nonzero"/><path fill="#bef264" d="M 106.710938 187.410156 C 107.667969 186.367188 108.234375 185.019531 108.199219 183.558594 C 108.171875 182.097656 107.546875 180.777344 106.550781 179.773438 C 105.550781 178.773438 104.171875 178.09375 102.605469 178.023438 C 101.050781 177.957031 99.605469 178.539062 98.554688 179.585938 C 97.507812 180.628906 96.859375 182.136719 96.894531 183.796875 C 96.929688 185.460938 97.636719 186.9375 98.730469 187.933594 C 99.824219 188.9375 101.285156 189.457031 102.84375 189.324219 C 104.402344 189.195312 105.753906 188.453125 106.710938 187.410156 " fill-opacity="1" fill-rule="nonzero"/><path fill="#bef264" d="M 105.261719 159.871094 C 103.933594 159.53125 102.589844 159.769531 101.492188 160.472656 C 100.40625 161.175781 99.578125 162.339844 99.296875 163.761719 C 99.019531 165.1875 99.351562 166.578125 100.097656 167.636719 C 100.847656 168.699219 102 169.429688 103.359375 169.613281 C 104.71875 169.800781 106.019531 169.421875 107.039062 168.710938 C 108.058594 167.992188 108.800781 166.9375 109.050781 165.667969 C 109.296875 164.394531 109.007812 163.140625 108.332031 162.089844 C 107.660156 161.042969 106.589844 160.207031 105.261719 159.871094 " fill-opacity="1" fill-rule="nonzero"/><path fill="#bef264" d="M 105.835938 148.226562 C 106.261719 149.257812 107.09375 150.089844 108.199219 150.503906 C 109.304688 150.914062 110.472656 150.847656 111.46875 150.433594 C 112.460938 150.019531 113.28125 149.261719 113.730469 148.230469 C 114.175781 147.199219 114.160156 146.078125 113.785156 145.070312 C 113.402344 144.0625 112.652344 143.167969 111.59375 142.644531 C 110.53125 142.128906 109.351562 142.089844 108.308594 142.484375 C 107.269531 142.875 106.359375 143.699219 105.875 144.839844 C 105.382812 145.976562 105.402344 147.203125 105.835938 148.226562 " fill-opacity="1" fill-rule="nonzero"/><path fill="#bef264" d="M 121.308594 127.082031 C 120.523438 126.46875 119.5625 126.242188 118.640625 126.382812 C 117.71875 126.523438 116.839844 127.03125 116.238281 127.871094 C 115.636719 128.710938 115.441406 129.714844 115.605469 130.632812 C 115.773438 131.550781 116.304688 132.378906 117.132812 132.921875 C 117.957031 133.464844 118.929688 133.625 119.820312 133.464844 C 120.710938 133.300781 121.527344 132.824219 122.082031 132.046875 C 122.632812 131.273438 122.824219 130.34375 122.6875 129.449219 C 122.550781 128.554688 122.089844 127.691406 121.308594 127.082031 " fill-opacity="1" fill-rule="nonzero"/><path fill="#bef264" d="M 133.757812 117.882812 C 134.898438 116.84375 135.015625 115.039062 133.980469 113.8125 C 132.949219 112.585938 131.078125 112.464844 129.84375 113.585938 C 128.617188 114.707031 128.5625 116.574219 129.6875 117.722656 C 130.808594 118.867188 132.613281 118.917969 133.757812 117.882812 " fill-opacity="1" fill-rule="nonzero"/><path fill="#bef264" d="M 148.269531 106.410156 C 149.300781 105.816406 149.671875 104.484375 149.089844 103.410156 C 148.511719 102.328125 147.140625 101.941406 146.050781 102.574219 C 144.957031 103.207031 144.613281 104.589844 145.257812 105.625 C 145.902344 106.667969 147.246094 107.003906 148.269531 106.410156 " fill-opacity="1" fill-rule="nonzero"/><path fill="#bef264" d="M 165.023438 98.230469 C 165.8125 97.980469 166.261719 97.132812 166.019531 96.324219 C 165.78125 95.511719 164.914062 95.058594 164.09375 95.320312 C 163.273438 95.582031 162.835938 96.460938 163.105469 97.257812 C 163.382812 98.054688 164.238281 98.484375 165.023438 98.230469 " fill-opacity="1" fill-rule="nonzero"/><path fill="#bef264" d="M 183.28125 93.773438 C 183.738281 93.726562 184.074219 93.324219 184.035156 92.859375 C 183.996094 92.398438 183.585938 92.054688 183.121094 92.101562 C 182.652344 92.144531 182.316406 92.5625 182.367188 93.023438 C 182.414062 93.484375 182.824219 93.816406 183.28125 93.773438 " fill-opacity="1" fill-rule="nonzero"/><path fill="#bef264" d="M 152.976562 268.363281 C 154.90625 267.699219 156.46875 266.257812 157.292969 264.292969 C 158.117188 262.328125 158.082031 260.222656 157.464844 258.414062 C 156.839844 256.601562 155.632812 255.074219 153.914062 254.167969 C 152.195312 253.261719 150.253906 253.132812 148.402344 253.640625 C 146.5625 254.15625 144.808594 255.320312 143.648438 257.109375 C 142.5 258.898438 142.191406 261.007812 142.738281 262.972656 C 143.277344 264.933594 144.667969 266.746094 146.71875 267.824219 C 148.773438 268.910156 151.054688 269.03125 152.976562 268.363281 " fill-opacity="1" fill-rule="nonzero"/><path fill="#bef264" d="M 173.894531 264.359375 C 172.984375 262.859375 171.605469 261.722656 169.886719 261.242188 C 168.167969 260.769531 166.402344 261.03125 164.851562 261.847656 C 163.3125 262.667969 161.980469 264.046875 161.3125 265.871094 C 160.644531 267.695312 160.792969 269.625 161.664062 271.265625 C 162.523438 272.902344 164.105469 274.234375 166.125 274.792969 C 168.148438 275.351562 170.191406 275.03125 171.769531 274.074219 C 173.359375 273.113281 174.484375 271.53125 174.847656 269.628906 C 175.214844 267.722656 174.789062 265.855469 173.894531 264.359375 " fill-opacity="1" fill-rule="nonzero"/><path fill="#bef264" d="M 187.140625 264.78125 C 185.519531 264.691406 183.996094 265.265625 182.792969 266.289062 C 181.589844 267.316406 180.695312 268.796875 180.472656 270.53125 C 180.246094 272.269531 180.761719 273.9375 181.839844 275.207031 C 182.914062 276.480469 184.554688 277.34375 186.429688 277.445312 C 188.304688 277.554688 190.03125 276.878906 191.242188 275.738281 C 192.457031 274.597656 193.15625 272.996094 193.125 271.246094 C 193.097656 269.492188 192.375 267.917969 191.296875 266.765625 C 190.207031 265.609375 188.761719 264.871094 187.140625 264.78125 " fill-opacity="1" fill-rule="nonzero"/><path fill="#bef264" d="M 206.667969 275.75 C 208.3125 275.496094 209.683594 274.59375 210.523438 273.375 C 211.371094 272.164062 211.691406 270.640625 211.351562 269.117188 C 211.007812 267.589844 210.097656 266.351562 208.9375 265.542969 C 207.777344 264.730469 206.363281 264.351562 204.921875 264.578125 C 203.476562 264.804688 202.253906 265.597656 201.390625 266.722656 C 200.53125 267.847656 200.042969 269.308594 200.183594 270.863281 C 200.328125 272.417969 201.101562 273.769531 202.273438 274.667969 C 203.449219 275.570312 205.027344 276.011719 206.667969 275.75 " fill-opacity="1" fill-rule="nonzero"/><path fill="#bef264" d="M 219.746094 263.117188 C 219.21875 264.25 219.078125 265.597656 219.5 266.902344 C 219.921875 268.207031 220.835938 269.21875 222.015625 269.765625 C 223.191406 270.3125 224.621094 270.394531 225.972656 269.871094 C 227.324219 269.347656 228.328125 268.328125 228.824219 267.136719 C 229.328125 265.9375 229.328125 264.566406 228.761719 263.316406 C 228.195312 262.070312 227.179688 261.167969 226.03125 260.6875 C 224.886719 260.203125 223.59375 260.140625 222.386719 260.609375 C 221.179688 261.074219 220.269531 261.988281 219.746094 263.117188 " fill-opacity="1" fill-rule="nonzero"/><path fill="#bef264" d="M 240.121094 260.71875 C 241.210938 260.960938 242.417969 260.765625 243.449219 260.082031 C 244.484375 259.398438 245.140625 258.367188 245.34375 257.269531 C 245.546875 256.171875 245.304688 255.023438 244.605469 254.066406 C 243.90625 253.113281 242.890625 252.53125 241.835938 252.335938 C 240.777344 252.140625 239.671875 252.324219 238.734375 252.941406 C 237.796875 253.558594 237.195312 254.503906 236.960938 255.554688 C 236.730469 256.605469 236.863281 257.765625 237.464844 258.78125 C 238.066406 259.796875 239.03125 260.476562 240.121094 260.71875 " fill-opacity="1" fill-rule="nonzero"/><path fill="#bef264" d="M 252.203125 244.359375 C 252.203125 245.265625 252.527344 246.1875 253.207031 246.910156 C 253.886719 247.632812 254.800781 248.007812 255.734375 248.011719 C 256.667969 248.011719 257.617188 247.644531 258.335938 246.90625 C 259.058594 246.167969 259.410156 245.207031 259.382812 244.273438 C 259.359375 243.34375 258.964844 242.441406 258.226562 241.773438 C 257.492188 241.109375 256.558594 240.808594 255.65625 240.828125 C 254.746094 240.851562 253.867188 241.203125 253.203125 241.882812 C 252.535156 242.5625 252.207031 243.449219 252.203125 244.359375 " fill-opacity="1" fill-rule="nonzero"/><path fill="#bef264" d="M 270.015625 230.996094 C 270.90625 229.59375 270.453125 227.773438 269.070312 226.972656 C 267.679688 226.171875 265.925781 226.601562 265.105469 227.90625 C 264.28125 229.210938 264.648438 230.980469 265.972656 231.886719 C 267.296875 232.789062 269.132812 232.414062 270.015625 230.996094 " fill-opacity="1" fill-rule="nonzero"/><path fill="#bef264" d="M 276.664062 210.269531 C 275.503906 209.886719 274.257812 210.488281 273.851562 211.605469 C 273.445312 212.722656 274.015625 213.984375 275.152344 214.4375 C 276.289062 214.886719 277.585938 214.300781 278.015625 213.121094 C 278.449219 211.933594 277.828125 210.652344 276.664062 210.269531 " fill-opacity="1" fill-rule="nonzero"/><path fill="#bef264" d="M 280.671875 192.363281 C 279.832031 192.269531 279.078125 192.855469 278.964844 193.675781 C 278.855469 194.496094 279.429688 195.265625 280.261719 195.394531 C 281.097656 195.523438 281.882812 194.9375 281.992188 194.082031 C 282.113281 193.230469 281.507812 192.457031 280.671875 192.363281 " fill-opacity="1" fill-rule="nonzero"/><path fill="#bef264" d="M 281.054688 175.691406 C 281.515625 175.664062 281.871094 175.253906 281.828125 174.785156 C 281.792969 174.320312 281.382812 173.976562 280.925781 174.015625 C 280.457031 174.058594 280.117188 174.464844 280.152344 174.921875 C 280.195312 175.378906 280.59375 175.722656 281.054688 175.691406 " fill-opacity="1" fill-rule="nonzero"/><path fill="#bef264" d="M 145.917969 229.925781 C 144.265625 230.023438 142.5625 230.675781 141.246094 231.972656 C 139.929688 233.269531 139.273438 234.996094 139.371094 236.769531 C 139.460938 238.535156 140.320312 240.339844 141.871094 241.640625 C 143.425781 242.941406 145.351562 243.464844 147.105469 243.25 C 148.867188 243.035156 150.453125 242.085938 151.496094 240.5625 C 152.542969 239.035156 152.886719 237.246094 152.691406 235.601562 C 152.492188 233.953125 151.753906 232.449219 150.472656 231.371094 C 149.1875 230.300781 147.578125 229.839844 145.917969 229.925781 " fill-opacity="1" fill-rule="nonzero"/><path fill="#bef264" d="M 136.667969 219.632812 C 135.167969 219.398438 133.515625 219.664062 132.085938 220.585938 C 130.660156 221.503906 129.742188 222.933594 129.496094 224.539062 C 129.242188 226.140625 129.660156 227.914062 130.792969 229.371094 C 131.929688 230.828125 133.542969 231.671875 135.15625 231.816406 C 136.773438 231.972656 138.382812 231.433594 139.625 230.28125 C 140.867188 229.125 141.535156 227.589844 141.683594 226.070312 C 141.820312 224.546875 141.445312 223.042969 140.5 221.820312 C 139.546875 220.601562 138.179688 219.867188 136.667969 219.632812 " fill-opacity="1" fill-rule="nonzero"/><path fill="#bef264" d="M 125.449219 207.566406 C 124.007812 208.117188 122.921875 209.21875 122.398438 210.597656 C 121.867188 211.96875 121.894531 213.613281 122.617188 215.125 C 123.339844 216.632812 124.605469 217.6875 126.007812 218.136719 C 127.414062 218.585938 128.949219 218.429688 130.285156 217.65625 C 131.625 216.875 132.519531 215.640625 132.945312 214.316406 C 133.371094 212.988281 133.332031 211.566406 132.71875 210.285156 C 132.101562 209.003906 131.023438 208.082031 129.71875 207.578125 C 128.417969 207.082031 126.894531 207.007812 125.449219 207.566406 " fill-opacity="1" fill-rule="nonzero"/><path fill="#bef264" d="M 125.398438 194.265625 C 124.34375 193.582031 123.011719 193.234375 121.632812 193.457031 C 120.253906 193.675781 119.097656 194.449219 118.367188 195.5625 C 117.644531 196.667969 117.359375 198.113281 117.699219 199.570312 C 118.046875 201.027344 118.953125 202.195312 120.097656 202.859375 C 121.25 203.527344 122.625 203.699219 123.957031 203.28125 C 125.289062 202.863281 126.320312 201.957031 126.960938 200.867188 C 127.59375 199.777344 127.832031 198.507812 127.535156 197.25 C 127.238281 195.988281 126.457031 194.957031 125.398438 194.265625 " fill-opacity="1" fill-rule="nonzero"/><path fill="#bef264" d="M 124.023438 186.34375 C 124.785156 185.511719 125.238281 184.4375 125.214844 183.273438 C 125.1875 182.109375 124.691406 181.0625 123.898438 180.261719 C 123.097656 179.464844 122 178.917969 120.753906 178.867188 C 119.511719 178.8125 118.363281 179.277344 117.527344 180.113281 C 116.691406 180.9375 116.179688 182.140625 116.207031 183.46875 C 116.234375 184.789062 116.800781 185.964844 117.667969 186.761719 C 118.539062 187.558594 119.703125 187.972656 120.941406 187.867188 C 122.183594 187.761719 123.261719 187.171875 124.023438 186.34375 " fill-opacity="1" fill-rule="nonzero"/><path fill="#bef264" d="M 122.867188 164.40625 C 121.8125 164.132812 120.738281 164.324219 119.867188 164.890625 C 119.003906 165.441406 118.339844 166.375 118.121094 167.507812 C 117.898438 168.640625 118.160156 169.753906 118.757812 170.59375 C 119.355469 171.441406 120.273438 172.019531 121.351562 172.167969 C 122.4375 172.3125 123.476562 172.019531 124.285156 171.445312 C 125.097656 170.878906 125.6875 170.035156 125.886719 169.023438 C 126.082031 168.011719 125.855469 167.007812 125.316406 166.175781 C 124.78125 165.34375 123.929688 164.675781 122.867188 164.40625 " fill-opacity="1" fill-rule="nonzero"/><path fill="#bef264" d="M 123.328125 155.132812 C 123.667969 155.953125 124.328125 156.617188 125.210938 156.945312 C 126.089844 157.273438 127.023438 157.222656 127.8125 156.890625 C 128.601562 156.5625 129.257812 155.957031 129.613281 155.132812 C 129.972656 154.3125 129.964844 153.417969 129.660156 152.617188 C 129.351562 151.8125 128.757812 151.101562 127.910156 150.6875 C 127.0625 150.269531 126.128906 150.242188 125.300781 150.558594 C 124.46875 150.867188 123.75 151.523438 123.355469 152.433594 C 122.960938 153.339844 122.984375 154.3125 123.328125 155.132812 " fill-opacity="1" fill-rule="nonzero"/><path fill="#bef264" d="M 132.324219 142.941406 C 133.652344 143.796875 135.390625 143.46875 136.265625 142.242188 C 137.144531 141.019531 136.890625 139.265625 135.648438 138.289062 C 134.410156 137.3125 132.574219 137.570312 131.613281 138.917969 C 130.652344 140.265625 130.996094 142.085938 132.324219 142.941406 " fill-opacity="1" fill-rule="nonzero"/><path fill="#bef264" d="M 145.566406 130.960938 C 146.472656 130.132812 146.566406 128.695312 145.746094 127.71875 C 144.925781 126.742188 143.433594 126.644531 142.453125 127.539062 C 141.476562 128.429688 141.429688 129.921875 142.324219 130.832031 C 143.222656 131.746094 144.65625 131.789062 145.566406 130.960938 " fill-opacity="1" fill-rule="nonzero"/><path fill="#bef264" d="M 157.128906 121.824219 C 157.949219 121.347656 158.246094 120.289062 157.78125 119.429688 C 157.320312 118.574219 156.226562 118.265625 155.359375 118.769531 C 154.492188 119.269531 154.214844 120.367188 154.726562 121.199219 C 155.238281 122.027344 156.308594 122.300781 157.128906 121.824219 " fill-opacity="1" fill-rule="nonzero"/><path fill="#bef264" d="M 170.472656 115.3125 C 171.101562 115.105469 171.457031 114.433594 171.265625 113.789062 C 171.074219 113.144531 170.386719 112.78125 169.730469 112.992188 C 169.078125 113.199219 168.726562 113.894531 168.945312 114.527344 C 169.167969 115.167969 169.847656 115.511719 170.472656 115.3125 " fill-opacity="1" fill-rule="nonzero"/><path fill="#bef264" d="M 185.015625 111.757812 C 185.382812 111.722656 185.652344 111.398438 185.617188 111.027344 C 185.585938 110.660156 185.257812 110.390625 184.886719 110.421875 C 184.515625 110.460938 184.242188 110.789062 184.28125 111.160156 C 184.324219 111.527344 184.652344 111.792969 185.015625 111.757812 " fill-opacity="1" fill-rule="nonzero"/><path fill="#bef264" d="M 152.71875 246.527344 C 153.148438 248.09375 154.257812 249.535156 155.894531 250.398438 C 157.527344 251.257812 159.347656 251.359375 160.878906 250.824219 C 162.414062 250.296875 163.65625 249.148438 164.316406 247.582031 C 164.96875 246.015625 164.941406 244.339844 164.453125 242.902344 C 163.957031 241.457031 162.992188 240.238281 161.625 239.515625 C 160.25 238.796875 158.707031 238.691406 157.234375 239.101562 C 155.765625 239.503906 154.371094 240.433594 153.449219 241.859375 C 152.53125 243.285156 152.285156 244.960938 152.71875 246.527344 " fill-opacity="1" fill-rule="nonzero"/><path fill="#bef264" d="M 171.351562 255.945312 C 172.960938 256.394531 174.589844 256.132812 175.84375 255.371094 C 177.109375 254.609375 178.007812 253.351562 178.296875 251.832031 C 178.59375 250.3125 178.25 248.828125 177.535156 247.636719 C 176.8125 246.441406 175.71875 245.535156 174.347656 245.15625 C 172.976562 244.777344 171.570312 244.984375 170.335938 245.632812 C 169.109375 246.289062 168.050781 247.390625 167.519531 248.839844 C 166.984375 250.289062 167.105469 251.828125 167.792969 253.132812 C 168.480469 254.4375 169.738281 255.5 171.351562 255.945312 " fill-opacity="1" fill-rule="nonzero"/><path fill="#bef264" d="M 182.777344 252.554688 C 182.597656 253.9375 183.007812 255.265625 183.871094 256.277344 C 184.722656 257.289062 186.027344 257.976562 187.523438 258.058594 C 189.019531 258.144531 190.390625 257.609375 191.359375 256.695312 C 192.320312 255.789062 192.878906 254.515625 192.855469 253.121094 C 192.835938 251.726562 192.257812 250.46875 191.398438 249.554688 C 190.535156 248.636719 189.378906 248.046875 188.089844 247.972656 C 186.796875 247.898438 185.585938 248.355469 184.625 249.175781 C 183.664062 249.988281 182.957031 251.167969 182.777344 252.554688 " fill-opacity="1" fill-rule="nonzero"/><path fill="#bef264" d="M 203.644531 256.710938 C 204.953125 256.503906 206.046875 255.789062 206.714844 254.816406 C 207.394531 253.851562 207.644531 252.636719 207.371094 251.425781 C 207.101562 250.207031 206.375 249.222656 205.449219 248.574219 C 204.523438 247.933594 203.402344 247.628906 202.253906 247.808594 C 201.101562 247.988281 200.125 248.621094 199.4375 249.519531 C 198.757812 250.414062 198.367188 251.578125 198.480469 252.816406 C 198.59375 254.054688 199.203125 255.128906 200.144531 255.847656 C 201.082031 256.566406 202.335938 256.914062 203.644531 256.710938 " fill-opacity="1" fill-rule="nonzero"/><path fill="#bef264" d="M 215.871094 251.9375 C 216.804688 252.378906 217.945312 252.445312 219.019531 252.027344 C 220.097656 251.609375 220.894531 250.796875 221.289062 249.847656 C 221.695312 248.890625 221.695312 247.800781 221.242188 246.804688 C 220.792969 245.8125 219.980469 245.09375 219.074219 244.710938 C 218.152344 244.324219 217.125 244.273438 216.164062 244.644531 C 215.203125 245.019531 214.480469 245.746094 214.058594 246.648438 C 213.640625 247.542969 213.527344 248.621094 213.867188 249.660156 C 214.199219 250.703125 214.933594 251.503906 215.871094 251.9375 " fill-opacity="1" fill-rule="nonzero"/><path fill="#bef264" d="M 230.292969 244.734375 C 231.152344 244.929688 232.121094 244.773438 232.941406 244.226562 C 233.769531 243.683594 234.285156 242.859375 234.449219 241.988281 C 234.613281 241.117188 234.421875 240.199219 233.863281 239.4375 C 233.304688 238.679688 232.5 238.21875 231.660156 238.058594 C 230.8125 237.898438 229.929688 238.046875 229.1875 238.539062 C 228.441406 239.035156 227.960938 239.785156 227.773438 240.625 C 227.585938 241.457031 227.695312 242.386719 228.179688 243.195312 C 228.65625 244.003906 229.421875 244.542969 230.292969 244.734375 " fill-opacity="1" fill-rule="nonzero"/><path fill="#bef264" d="M 244.796875 233.730469 C 245.957031 232.550781 245.894531 230.695312 244.714844 229.648438 C 243.53125 228.597656 241.761719 228.65625 240.707031 229.734375 C 239.65625 230.808594 239.636719 232.578125 240.714844 233.734375 C 241.789062 234.894531 243.644531 234.914062 244.796875 233.730469 " fill-opacity="1" fill-rule="nonzero"/><path fill="#bef264" d="M 254.105469 221.0625 C 254.8125 219.941406 254.453125 218.492188 253.347656 217.855469 C 252.242188 217.214844 250.847656 217.558594 250.191406 218.601562 C 249.539062 219.636719 249.828125 221.046875 250.882812 221.769531 C 251.9375 222.492188 253.398438 222.1875 254.105469 221.0625 " fill-opacity="1" fill-rule="nonzero"/><path fill="#bef264" d="M 258.195312 207.867188 C 259.097656 208.226562 260.132812 207.761719 260.476562 206.820312 C 260.816406 205.878906 260.324219 204.855469 259.398438 204.550781 C 258.46875 204.242188 257.480469 204.722656 257.160156 205.617188 C 256.835938 206.503906 257.289062 207.511719 258.195312 207.867188 " fill-opacity="1" fill-rule="nonzero"/><path fill="#bef264" d="M 262.265625 192.699219 C 262.929688 192.804688 263.554688 192.335938 263.648438 191.65625 C 263.738281 190.980469 263.257812 190.363281 262.589844 190.285156 C 261.917969 190.214844 261.320312 190.679688 261.230469 191.332031 C 261.140625 191.988281 261.601562 192.597656 262.265625 192.699219 " fill-opacity="1" fill-rule="nonzero"/><path fill="#bef264" d="M 262.898438 177.007812 C 263.265625 176.984375 263.542969 176.660156 263.511719 176.289062 C 263.484375 175.914062 263.160156 175.640625 262.789062 175.675781 C 262.421875 175.707031 262.152344 176.03125 262.179688 176.394531 C 262.210938 176.757812 262.527344 177.035156 262.898438 177.007812 " fill-opacity="1" fill-rule="nonzero"/><g clip-path="url(#90c42d2061)"><g clip-path="url(#d690d71548)"><g clip-path="url(#36eb039687)"><path fill="#ebe6e6" d="M 50.804688 85.433594 C 52.914062 76.433594 66.054688 79.402344 63.949219 88.398438 C 63.746094 89.277344 63.539062 90.152344 63.335938 91.03125 C 61.226562 100.03125 48.085938 97.058594 50.191406 88.066406 C 50.394531 87.1875 50.601562 86.308594 50.808594 85.433594 Z M 47.660156 179.984375 C 47.96875 180.515625 48.277344 181.046875 48.589844 181.578125 C 53.082031 189.28125 64.695312 181.519531 60.195312 173.804688 C 59.882812 173.273438 59.574219 172.742188 59.261719 172.210938 C 54.769531 164.507812 43.15625 172.269531 47.660156 179.984375 Z M 26.238281 265.910156 C 18.773438 270.914062 25.742188 282.890625 33.222656 277.878906 C 40.6875 272.875 33.71875 260.898438 26.238281 265.910156 Z M 125.964844 4.011719 C 125.761719 4.886719 125.554688 5.765625 125.351562 6.644531 C 123.246094 15.636719 136.386719 18.609375 138.492188 9.609375 C 138.699219 8.730469 138.90625 7.855469 139.109375 6.976562 C 141.214844 -2.019531 128.074219 -4.988281 125.964844 4.011719 Z M 14.101562 123.398438 C 13.585938 123.742188 13.070312 124.085938 12.554688 124.433594 C 8.003906 127.484375 6.050781 134.535156 9.089844 139.242188 C 12.136719 143.960938 18.152344 145.652344 23.03125 142.386719 C 23.546875 142.039062 24.0625 141.695312 24.578125 141.351562 C 29.128906 138.300781 31.082031 131.25 28.042969 126.542969 C 24.996094 121.820312 18.980469 120.128906 14.101562 123.398438 Z M 66.652344 294.601562 C 55.453125 302.101562 65.90625 320.066406 77.125 312.550781 C 88.328125 305.046875 77.871094 287.085938 66.652344 294.601562 Z M 53.644531 236.621094 C 54.46875 236.808594 55.292969 236.996094 56.121094 237.183594 C 60.355469 238.136719 61.992188 231.160156 57.753906 230.203125 C 56.929688 230.015625 56.101562 229.828125 55.277344 229.644531 C 51.042969 228.6875 49.40625 235.667969 53.644531 236.625 Z M 92.476562 327.792969 C 88.742188 330.292969 92.226562 336.28125 95.96875 333.777344 C 99.699219 331.273438 96.214844 325.289062 92.476562 327.792969 Z M 133.613281 29.464844 C 129.878906 31.964844 133.363281 37.953125 137.105469 35.449219 C 140.839844 32.949219 137.351562 26.960938 133.613281 29.464844 Z M 108.617188 41.492188 C 108.929688 42.023438 109.238281 42.554688 109.550781 43.085938 C 111.796875 46.9375 117.601562 43.054688 115.351562 39.199219 C 115.042969 38.667969 114.730469 38.136719 114.421875 37.605469 C 112.175781 33.753906 106.367188 37.636719 108.617188 41.492188 Z M 23.429688 87.742188 C 19.695312 90.242188 23.179688 96.230469 26.921875 93.726562 C 30.652344 91.226562 27.167969 85.238281 23.429688 87.742188 Z M 48.566406 130.824219 C 44.835938 133.328125 48.320312 139.316406 52.058594 136.808594 C 55.792969 134.308594 52.304688 128.320312 48.566406 130.824219 Z M 33.273438 34.539062 C 29.542969 37.039062 33.027344 43.027344 36.765625 40.523438 C 40.5 38.019531 37.011719 32.03125 33.273438 34.539062 Z M 116.273438 -30.21875 C 116.585938 -29.6875 116.894531 -29.15625 117.203125 -28.621094 C 119.453125 -24.773438 125.257812 -28.652344 123.007812 -32.511719 C 122.695312 -33.042969 122.386719 -33.574219 122.078125 -34.105469 C 119.832031 -37.957031 114.023438 -34.074219 116.273438 -30.21875 Z M 104.160156 4.808594 C 100.425781 7.308594 103.914062 13.296875 107.652344 10.789062 C 111.386719 8.289062 107.902344 2.300781 104.160156 4.808594 Z M 125.328125 92.71875 C 121.59375 95.222656 125.078125 101.207031 128.820312 98.703125 C 132.550781 96.203125 129.066406 90.214844 125.328125 92.71875 Z M 93.710938 71.730469 C 89.980469 74.230469 93.464844 80.21875 97.203125 77.714844 C 100.9375 75.214844 97.453125 69.226562 93.710938 71.730469 Z M 40.101562 300.734375 C 36.367188 303.234375 39.855469 309.222656 43.59375 306.71875 C 47.328125 304.21875 43.839844 298.230469 40.101562 300.734375 Z M 40.101562 300.734375 " fill-opacity="1" fill-rule="nonzero"/></g></g></g></svg>